<?xml version="1.0" encoding="UTF-8" standalone="no"?>
<svg xmlns:dc="http://purl.org/dc/elements/1.1/" xmlns:cc="http://creativecommons.org/ns#" xmlns:rdf="http://www.w3.org/1999/02/22-rdf-syntax-ns#" xmlns:svg="http://www.w3.org/2000/svg" xmlns="http://www.w3.org/2000/svg" xmlns:sodipodi="http://sodipodi.sourceforge.net/DTD/sodipodi-0.dtd" xmlns:inkscape="http://www.inkscape.org/namespaces/inkscape" id="svg2" version="1.1" height="300" width="600" sodipodi:docname="regular_simple.svg" inkscape:version="0.92.3 (2405546, 2018-03-11)">
<sodipodi:namedview pagecolor="#ffffff" bordercolor="#666666" borderopacity="1" objecttolerance="10" gridtolerance="10" guidetolerance="10" inkscape:pageopacity="0" inkscape:pageshadow="2" inkscape:window-width="640" inkscape:window-height="480" id="namedview53" showgrid="false" fit-margin-top="0" fit-margin-left="0" fit-margin-right="0" fit-margin-bottom="0" inkscape:current-layer="svg2">
<inkscape:grid type="xygrid" id="grid55" />
</sodipodi:namedview>
<metadata id="metadata8">
<rdf:RDF>
<cc:Work rdf:about="">
<dc:format>image/svg+xml</dc:format>
<dc:type rdf:resource="http://purl.org/dc/dcmitype/StillImage" />
<dc:title></dc:title>
</cc:Work>
</rdf:RDF>
</metadata>
<defs id="defs6">
<marker style="overflow:visible" id="marker1907" refX="0" refY="0" orient="auto">
<path transform="matrix(0.2,0,0,0.2,1.48,0.2)" style="fill:#ffffff;fill-opacity:1;fill-rule:evenodd;stroke:#ffffff;stroke-width:1.00000003pt;stroke-opacity:1" d="m -2.5,-1 c 0,2.76 -2.24,5 -5,5 c -2.76,0 -5,-2.24 -5,-5 c 0,-2.76 2.24,-5 5,-5 c 2.76,0 5,2.24 5,5 z" id="path1905" inkscape:connector-curvature="0" />
</marker>
<marker style="overflow:visible" id="marker1849" refX="0" refY="0" orient="auto">
<path transform="matrix(0.2,0,0,0.2,1.48,0.2)" style="fill:#ffffff;fill-opacity:1;fill-rule:evenodd;stroke:#ffffff;stroke-width:1.00000003pt;stroke-opacity:1" d="m -2.5,-1 c 0,2.76 -2.24,5 -5,5 c -2.76,0 -5,-2.24 -5,-5 c 0,-2.76 2.24,-5 5,-5 c 2.76,0 5,2.24 5,5 z" id="path1847" inkscape:connector-curvature="0" />
</marker>
</defs>
<rect y="0" x="0" height="300" width="600" id="rect12" style="fill:#252525;fill-rule:evenodd;stroke-width:2.6725297" />
<g id="g5643" transform="translate(0,-300)">
<text xml:space="preserve" style="font-weight:bold;font-size:33.33333206px;line-height:1.25;font-family:sans-serif;-inkscape-font-specification:'sans-serif Bold';letter-spacing:0px;word-spacing:0px;fill:#00ff00" x="75.35807" y="579.06573" id="text5629"><tspan id="tspan5627" x="75.35807" y="579.06573" style="-inkscape-font-specification:'sans-serif Bold'">Regular</tspan></text>
<text id="text5633" y="579.19598" x="385.5062" style="font-weight:bold;font-size:33.33333206px;line-height:1.25;font-family:sans-serif;-inkscape-font-specification:'sans-serif Bold';letter-spacing:0px;word-spacing:0px;fill:#00ff00" xml:space="preserve"><tspan style="-inkscape-font-specification:'sans-serif Bold'" y="579.19598" x="385.5062" id="tspan5631">Simple</tspan></text>
</g>
<path sodipodi:type="star" style="fill:none;fill-rule:evenodd;stroke:#ffffff;stroke-width:4;stroke-linejoin:round;marker-mid:url(#marker1849);marker-end:url(#marker1907)" id="path57" sodipodi:sides="5" sodipodi:cx="450" sodipodi:cy="140" sodipodi:r1="120" sodipodi:r2="45.84" sodipodi:arg1="-1.5707963" sodipodi:arg2="-0.94247777" inkscape:flatsided="false" inkscape:rounded="0" inkscape:randomized="0" d="m 450,20 l 26.94408,82.91466 l 87.1827,0.003 l -70.53035,51.24738 l 26.9378,82.9167 l -70.53423,-51.24204 l -70.53423,51.24204 l 26.9378,-82.9167 l -70.53035,-51.24738 l 87.1827,-0.003 z" inkscape:transform-center-y="-3.6184428" />
<path style="fill:none;stroke:#ffffff;stroke-width:4;stroke-linejoin:round;marker-mid:url(#marker1849);marker-end:url(#marker1907)" d="m 150,20 l 70.53423,217.08204 l -184.661011,-134.16408 h 228.253561 l -184.661013,134.16408 z" id="path85" inkscape:connector-curvature="0" />
</svg>
